<?xml version="1.0" encoding="UTF-8"?>
<svg id="Layer_1" xmlns="http://www.w3.org/2000/svg" version="1.1" viewBox="0 0 100 100">
  <!-- Generator: Adobe Illustrator 30.0.0, SVG Export Plug-In . SVG Version: 2.1.1 Build 123)  -->
  <defs>
    <style>
      .st0 {
        fill-rule: evenodd;
      }

      .st0, .st1 {
        fill: #1d1d1b;
      }
    </style>
  </defs>
  <path class="st1" d="M10.9,89.2l5.6-21c-3.2-5.7-4.9-12.2-4.9-18.7,0-21.3,17.4-38.7,38.7-38.7s38.7,17.4,38.7,38.7-17.4,38.7-38.7,38.7-12.7-1.6-18.4-4.7l-21.1,5.6ZM33,75.7l1.3.8c4.9,2.9,10.4,4.4,16,4.4,17.3,0,31.4-14.1,31.4-31.4s-14.1-31.4-31.4-31.4-31.4,14.1-31.4,31.4,1.6,11.3,4.6,16.3l.8,1.3-3.1,11.7,11.8-3.2Z"/>
  <path class="st0" d="M64.8,54.9c-1.6-1-3.7-2-5.5-1.2-1.4.6-2.4,2.8-3.3,4-.5.6-1.1.7-1.8.4-5.4-2.2-9.5-5.8-12.5-10.7-.5-.8-.4-1.4.2-2.1.9-1.1,2-2.3,2.3-3.7.2-1.4-.4-3.1-1-4.4-.8-1.6-1.6-3.9-3.2-4.9-1.5-.8-3.5-.4-4.8.7-2.3,1.9-3.4,4.8-3.4,7.7,0,.8.1,1.7.3,2.5.5,1.9,1.4,3.7,2.4,5.4.8,1.3,1.6,2.5,2.5,3.7,2.9,3.9,6.5,7.3,10.7,9.9,2.1,1.3,4.3,2.4,6.6,3.2,2.6.9,4.9,1.8,7.7,1.2,2.9-.6,5.8-2.4,7-5.2.3-.8.5-1.8.3-2.7-.4-1.8-2.9-2.9-4.4-3.8Z"/>
</svg>