<?xml version="1.0" encoding="UTF-8"?>
<svg id="Layer_2" xmlns="http://www.w3.org/2000/svg" xmlns:xlink="http://www.w3.org/1999/xlink" version="1.1" viewBox="0 0 234.6 204.2">
  <!-- Generator: Adobe Illustrator 30.2.1, SVG Export Plug-In . SVG Version: 2.1.1 Build 1)  -->
  <defs>
    <style>
      .st0 {
        fill: url(#radial-gradient);
      }

      .st1 {
        fill: #9d9d9c;
        font-family: KlavikaCH-MediumCondensed, 'Klavika CH';
        font-size: 15px;
        font-weight: 500;
        letter-spacing: .3em;
      }

      .st2 {
        fill: #324395;
      }

      .st3 {
        fill: #f6b114;
      }

      .st4 {
        clip-path: url(#clippath);
      }
    </style>
    <clipPath id="clippath">
      <path id="SVGID1" data-name="SVGID" class="st2" d="M106.9,65.1c-32.5,20.3-38.7,45.4-14.9,50.2,2.6.4,5.3.6,8,.6,30.4,0,55.1-25.5,55.1-57.1S137.3,9.5,113.2,3.4c-1.7-.4-3.4-.7-5.1-.9,32.4,4.6,32.7,41.5-1.2,62.6"/>
    </clipPath>
    <radialGradient id="radial-gradient" cx="96.6" cy="60" fx="96.6" fy="60" r="96" gradientTransform="translate(193.1 116.4) rotate(-180) scale(1 .9)" gradientUnits="userSpaceOnUse">
      <stop offset="0" stop-color="#fdf5b1"/>
      <stop offset="0" stop-color="#fdf5b1"/>
      <stop offset="0" stop-color="#fcf39f"/>
      <stop offset="0" stop-color="#fbee70"/>
      <stop offset=".1" stop-color="#fbec5a"/>
      <stop offset=".4" stop-color="#fdd526"/>
      <stop offset=".5" stop-color="#fecb0d"/>
      <stop offset=".6" stop-color="#f6a41d"/>
      <stop offset=".7" stop-color="#f49524"/>
      <stop offset=".8" stop-color="#f49922"/>
      <stop offset=".8" stop-color="#f7a51e"/>
      <stop offset=".9" stop-color="#faba17"/>
      <stop offset=".9" stop-color="#fcc115"/>
      <stop offset=".9" stop-color="#fbc31a"/>
      <stop offset="1" stop-color="#fbda49"/>
      <stop offset="1" stop-color="#fbe866"/>
      <stop offset="1" stop-color="#fbee72"/>
    </radialGradient>
  </defs>
  <g>
    <path class="st2" d="M61.9,162.8c0,2.9,1,4.7,4.7,4.7s5.8-.3,8.7-.8l1.1,6.6c-3.3.7-6.4,1.1-9.8,1.1-8.5,0-12.3-4.2-12.3-10.3v-14.1c0-6.1,3.8-10.3,12.3-10.3s6.4.4,9.8,1.1l-1.1,6.6c-2.9-.5-6.3-.8-8.7-.8-3.7,0-4.7,1.7-4.7,4.7v11.6Z"/>
    <polygon class="st2" points="99.9 173.8 99.9 160.2 89 160.2 89 173.8 81.5 173.8 81.5 140.1 89 140.1 89 153.5 99.9 153.5 99.9 140.1 107.5 140.1 107.5 173.8 99.9 173.8"/>
    <path class="st2" d="M142,173.8h-7.9l-1.8-6.6h-11.3l-1.8,6.6h-7.9l10.3-33.7h10.1l10.3,33.7ZM122.7,160.9h7.7l-3.8-14.1-3.9,14.1Z"/>
    <polygon class="st2" points="153 151.6 153 173.8 145.8 173.8 145.8 140.1 155.1 140.1 166.1 163.3 166.1 140.1 173.4 140.1 173.4 173.8 164 173.8 153 151.6"/>
    <path class="st2" d="M191.5,174.3c-8.2,0-12.3-4.2-12.3-10.3v-14.1c0-6.2,4.1-10.3,12.3-10.3s7.9.5,10.8,1.1l-.9,6.6c-2.9-.5-7.4-.8-9.9-.8-3.8,0-4.8,2-4.8,4.6v11.6c0,2.6,1,4.8,4.8,4.8s2.5,0,4.5-.3v-10.3h7.1v15.8c-3.7,1.1-7.7,1.6-11.6,1.6"/>
    <polygon class="st2" points="209.5 173.8 209.5 140.1 230.7 140.1 230.7 146.8 217.1 146.8 217.1 153 229.6 153 229.6 159.7 217.1 159.7 217.1 167.1 230.7 167.1 230.7 173.8 209.5 173.8"/>
  </g>
  <g>
    <g>
      <path id="SVGID" class="st2" d="M106.9,65.1c-32.5,20.3-38.7,45.4-14.9,50.2,2.6.4,5.3.6,8,.6,30.4,0,55.1-25.5,55.1-57.1S137.3,9.5,113.2,3.4c-1.7-.4-3.4-.7-5.1-.9,32.4,4.6,32.7,41.5-1.2,62.6"/>
      <g class="st4">
        <rect class="st2" x="68.2" y="2.4" width="87" height="113.4"/>
      </g>
    </g>
    <path id="SVGID2" data-name="SVGID" class="st0" d="M101.8,2h-.2c-.9,0-1.8,0-2.7,0-.5,0-1,0-1.5.1-.5,0-.9,0-1.4.1-.1,0-.3,0-.4,0-27.1,3.4-21.7,29.5,12,50.5,33.9,21,33.6,57.8,1.2,62.3,26.6-3.5,47.3-26.5,48.1-54.6h0v-.2h0c0,0,0-.1,0-.2h0v-.2s0,0,0,0h0c0-.1,0-.2,0-.2h0v-.2h0c0-.1,0-.2,0-.2h0v-.2h0v-.2s0,0,0,0v-.2h0c0-14.8-5.5-28.2-14.4-38.3h0s0,0,0,0c0,0,0,0,0,0,0,0,0,0,0,0,0,0,0,0,0,0h0C132.2,9,117.8,2,101.8,2h0Z"/>
  </g>
  <g>
    <path class="st3" d="M3.9,173.8v-33.7h12.6c4.6,0,7.2,2.2,7.2,6.6v4c0,2.7-1.1,4.4-3.8,5.5,2.6.4,4.9,2.5,4.9,6.3v4.4c0,4.7-3.4,6.9-7.7,6.9H3.9ZM20.8,146.3c0-2.3-1.3-3.6-4.2-3.6H6.9v12.5h8.7c3.7,0,5.2-1.9,5.2-4.6v-4.3ZM21.8,162.6c0-2.8-1.7-4.8-5.6-4.8H6.9v13.3h10.3c3.2,0,4.7-1.6,4.7-4.2v-4.3Z"/>
    <path class="st3" d="M40,171.7c2.5,0,5.4-.5,7.8-1.2l.5,2.4c-2.3.8-5.5,1.4-8.5,1.4-6.9,0-9.2-3.6-9.2-9v-7.7c0-5.1,2.3-8.9,9.2-8.9s8.9,3.9,8.9,8.9v4.8h-15.2v3.1c0,4.4,1.5,6.3,6.4,6.3M33.6,159.7h12.3v-2.2c0-4.1-1.5-6.3-6.1-6.3s-6.3,2.2-6.3,6.3v2.2Z"/>
  </g>
  <text class="st1" transform="translate(30 200) scale(1.1 1)"><tspan x="0" y="0">STUDIO DE DESIGN</tspan></text>
</svg>